<svg width="40" height="38" viewBox="0 0 40 38" fill="none" xmlns="http://www.w3.org/2000/svg">
<path d="M39.1663 0.75H0.833008V12.25H2.74967V33.3333C2.74967 34.35 3.15354 35.325 3.87243 36.0439C4.59132 36.7628 5.56634 37.1667 6.58301 37.1667H33.4163C34.433 37.1667 35.408 36.7628 36.1269 36.0439C36.8458 35.325 37.2497 34.35 37.2497 33.3333V12.25H39.1663V0.75ZM4.66634 4.58333H35.333V8.41667H4.66634V4.58333ZM33.4163 33.3333H6.58301V12.25H33.4163V33.3333ZM14.2497 16.0833H25.7497C25.7497 17.1 25.3458 18.075 24.6269 18.7939C23.908 19.5128 22.933 19.9167 21.9163 19.9167H18.083C17.0663 19.9167 16.0913 19.5128 15.3724 18.7939C14.6535 18.075 14.2497 17.1 14.2497 16.0833Z" fill="black"/>
</svg>
