<svg width="39" height="39" viewBox="0 0 39 39" fill="none" xmlns="http://www.w3.org/2000/svg">
<path d="M10.8648 24.375H28.1369M10.5869 21.125H28.4148M12.5824 11.375H26.4177M12.5824 11.375C11.5993 11.375 11.1086 11.375 10.7462 11.57C10.4275 11.7429 10.1758 12.0175 10.0312 12.35C9.86705 12.7286 9.90768 13.2178 9.99218 14.196L11.2922 29.3686C11.4368 31.0456 11.5083 31.8874 11.8804 32.5211C12.209 33.0805 12.6974 33.5287 13.2828 33.8081C13.9491 34.125 14.7892 34.125 16.4743 34.125H22.5274C24.2109 34.125 25.0527 34.125 25.7173 33.8081C26.3027 33.5287 26.7911 33.0805 27.1197 32.5211C27.4934 31.8874 27.5649 31.0472 27.7079 29.3686L29.0079 14.1944C29.0924 13.2161 29.1347 12.7286 28.9705 12.3516C28.8259 12.0191 28.5742 11.7446 28.2556 11.5716C27.8932 11.375 27.3992 11.375 26.4177 11.375M12.5824 11.375H10.9688C9.5063 11.375 8.77505 11.375 8.35093 11.0695C8.16523 10.9357 8.00989 10.7642 7.89507 10.5662C7.78026 10.3682 7.70856 10.1482 7.68468 9.92063C7.62943 9.40063 7.99343 8.76363 8.7198 7.49288C9.26255 6.54225 9.53393 6.06612 9.9158 5.72C10.2566 5.41031 10.6593 5.17656 11.0972 5.03425C11.5847 4.875 12.1339 4.875 13.2276 4.875H25.7726C26.8678 4.875 27.4138 4.875 27.9046 5.03425C28.3433 5.17563 28.7447 5.40962 29.0843 5.72C29.4662 6.06612 29.7376 6.54063 30.2803 7.49125C31.0067 8.762 31.3707 9.399 31.3154 9.92063C31.2915 10.1482 31.2198 10.3682 31.105 10.5662C30.9902 10.7642 30.8349 10.9357 30.6492 11.0695C30.2283 11.375 29.4938 11.375 28.0346 11.375H26.4177" stroke="white" stroke-width="2" stroke-linecap="round" stroke-linejoin="round"/>
</svg>
