<svg width="42" height="42" viewBox="0 0 42 42" fill="none" xmlns="http://www.w3.org/2000/svg">
<path d="M10.5 23.625H18.375V26.25H10.5V23.625ZM10.5 28.875H23.625V31.5H10.5V28.875Z" fill="black"/>
<path d="M34.125 5.25H7.875C7.17913 5.25104 6.51205 5.52794 6.01999 6.01999C5.52794 6.51205 5.25104 7.17913 5.25 7.875V34.125C5.25104 34.8209 5.52794 35.4879 6.01999 35.98C6.51205 36.4721 7.17913 36.749 7.875 36.75H34.125C34.8209 36.749 35.4879 36.4721 35.98 35.98C36.4721 35.4879 36.749 34.8209 36.75 34.125V7.875C36.749 7.17913 36.4721 6.51205 35.98 6.01999C35.4879 5.52794 34.8209 5.25104 34.125 5.25ZM23.625 7.875V13.125H18.375V7.875H23.625ZM7.875 34.125V7.875H15.75V15.75H26.25V7.875H34.125L34.1263 34.125H7.875Z" fill="black"/>
</svg>
