<svg width="29" height="37" viewBox="0 0 29 37" fill="none" xmlns="http://www.w3.org/2000/svg">
<path d="M5.38811 36.8951H23.6111C27.1635 36.8951 28.9309 35.0933 28.9309 31.5241V15.9434C28.9309 13.7294 28.6908 12.7688 27.318 11.3616L17.8455 1.7354C16.5423 0.396312 15.4778 0.104919 13.5391 0.104919H5.38811C1.85332 0.104919 0.0683594 1.92356 0.0683594 5.49349V31.5241C0.0683594 35.1101 1.85332 36.8951 5.38811 36.8951ZM5.52502 34.1327C3.75763 34.1327 2.83073 33.1883 2.83073 31.4728V5.54474C2.83073 3.84617 3.75763 2.86729 5.54259 2.86729H13.1613V12.8376C13.1613 14.9996 14.2595 16.0634 16.3871 16.0634H26.1685V31.4728C26.1685 33.1883 25.2585 34.1327 23.4742 34.1327H5.52502ZM16.6961 13.4717C16.0269 13.4717 15.7516 13.1978 15.7516 12.5111V3.39956L25.6355 13.4724L16.6961 13.4717Z" fill="white"/>
</svg>
