<svg width="29" height="37" viewBox="0 0 29 37" fill="none" xmlns="http://www.w3.org/2000/svg">
<path d="M5.38811 36.8952H23.6111C27.1635 36.8952 28.9309 35.0934 28.9309 31.5242V15.9434C28.9309 13.7294 28.6908 12.7689 27.318 11.3617L17.8455 1.73546C16.5423 0.396374 15.4778 0.10498 13.5391 0.10498H5.38811C1.85332 0.10498 0.0683594 1.92362 0.0683594 5.49355V31.5242C0.0683594 35.1102 1.85332 36.8952 5.38811 36.8952ZM5.52502 34.1328C3.75763 34.1328 2.83073 33.1883 2.83073 31.4729V5.5448C2.83073 3.84623 3.75763 2.86736 5.54259 2.86736H13.1613V12.8377C13.1613 14.9997 14.2595 16.0635 16.3871 16.0635H26.1685V31.4729C26.1685 33.1883 25.2585 34.1328 23.4742 34.1328H5.52502ZM16.6961 13.4717C16.0269 13.4717 15.7516 13.1979 15.7516 12.5111V3.39962L25.6355 13.4724L16.6961 13.4717Z" fill="black"/>
</svg>
