<svg width="29" height="29" viewBox="0 0 29 29" fill="none" xmlns="http://www.w3.org/2000/svg">
<path d="M1.58325 14.5C1.58325 21.6339 7.36604 27.4167 14.4999 27.4167C21.6338 27.4167 27.4166 21.6339 27.4166 14.5C27.4166 7.36613 21.6338 1.58333 14.4999 1.58333C7.36604 1.58333 1.58325 7.36613 1.58325 14.5Z" stroke="white" stroke-width="1.5" stroke-linecap="round" stroke-linejoin="round"/>
<path d="M15.7916 1.64792C15.7916 1.64792 19.6666 6.75 19.6666 14.5C19.6666 22.25 15.7916 27.3521 15.7916 27.3521M13.2082 27.3521C13.2082 27.3521 9.33322 22.25 9.33322 14.5C9.33322 6.75 13.2082 1.64792 13.2082 1.64792M2.39697 19.0208H26.6028M2.39697 9.97917H26.6028" stroke="white" stroke-width="1.5" stroke-linecap="round" stroke-linejoin="round"/>
</svg>
