<svg width="38" height="38" viewBox="0 0 38 38" fill="none" xmlns="http://www.w3.org/2000/svg">
<path d="M18.9997 34.8334C25.295 34.8334 31.6663 32.6579 31.6663 28.5V9.50002C31.6663 5.34219 25.295 3.16669 18.9997 3.16669C12.7043 3.16669 6.33301 5.34219 6.33301 9.50002V28.5C6.33301 32.6579 12.7043 34.8334 18.9997 34.8334ZM18.9997 31.6667C13.1065 31.6667 9.49967 29.6163 9.49967 28.5V26.4924C11.9396 27.8192 15.4799 28.5 18.9997 28.5C22.5194 28.5 26.0598 27.8192 28.4997 26.4924V28.5C28.4997 29.6163 24.8928 31.6667 18.9997 31.6667ZM18.9997 6.33335C24.8928 6.33335 28.4997 8.38377 28.4997 9.50002C28.4997 10.6163 24.8928 12.6667 18.9997 12.6667C13.1065 12.6667 9.49967 10.6163 9.49967 9.50002C9.49967 8.38377 13.1065 6.33335 18.9997 6.33335ZM9.49967 13.8257C11.9396 15.1525 15.4799 15.8334 18.9997 15.8334C22.5194 15.8334 26.0598 15.1525 28.4997 13.8257V15.8334C28.4997 16.9496 24.8928 19 18.9997 19C13.1065 19 9.49967 16.9496 9.49967 15.8334V13.8257ZM9.49967 20.159C11.9396 21.4859 15.4799 22.1667 18.9997 22.1667C22.5194 22.1667 26.0598 21.4859 28.4997 20.159V22.1667C28.4997 23.2829 24.8928 25.3334 18.9997 25.3334C13.1065 25.3334 9.49967 23.2829 9.49967 22.1667V20.159Z" fill="white"/>
</svg>
