<svg width="28" height="28" viewBox="0 0 28 28" fill="none" xmlns="http://www.w3.org/2000/svg">
<path d="M27.0611 24.464L21.1248 18.5252C22.9047 16.2058 23.7357 13.2962 23.4492 10.3866C23.1627 7.47708 21.7802 4.78543 19.5821 2.85771C17.3841 0.929981 14.535 -0.0894648 11.613 0.00616771C8.69089 0.1018 5.9146 1.30535 3.84728 3.37267C1.77996 5.43999 0.57641 8.21628 0.480777 11.1383C0.385145 14.0604 1.40459 16.9095 3.33231 19.1075C5.26004 21.3056 7.95169 22.6881 10.8613 22.9746C13.7708 23.2611 16.6804 22.4301 18.9998 20.6502L24.9411 26.5927C25.0806 26.7322 25.2463 26.8429 25.4286 26.9184C25.6109 26.994 25.8063 27.0328 26.0036 27.0328C26.2009 27.0328 26.3963 26.994 26.5786 26.9184C26.7609 26.8429 26.9265 26.7322 27.0661 26.5927C27.2056 26.4532 27.3163 26.2875 27.3918 26.1052C27.4673 25.9229 27.5062 25.7275 27.5062 25.5302C27.5062 25.3329 27.4673 25.1375 27.3918 24.9552C27.3163 24.7729 27.2056 24.6072 27.0661 24.4677L27.0611 24.464ZM3.49983 11.5252C3.49983 9.84408 3.99835 8.20069 4.93234 6.80287C5.86633 5.40505 7.19385 4.31559 8.74702 3.67224C10.3002 3.0289 12.0093 2.86057 13.6581 3.18854C15.3069 3.51652 16.8215 4.32607 18.0102 5.51481C19.199 6.70356 20.0085 8.21811 20.3365 9.86695C20.6645 11.5158 20.4961 13.2249 19.8528 14.778C19.2095 16.3312 18.12 17.6587 16.7222 18.5927C15.3244 19.5267 13.681 20.0252 11.9998 20.0252C9.7462 20.0229 7.58554 19.1266 5.99198 17.5331C4.39842 15.9395 3.50215 13.7788 3.49983 11.5252Z" fill="black"/>
</svg>
