<svg width="38" height="35" viewBox="0 0 38 35" fill="none" xmlns="http://www.w3.org/2000/svg">
<path fill-rule="evenodd" clip-rule="evenodd" d="M1.82845 0.711742C1.57714 0.599929 1.29684 0.570711 1.02787 0.62829C0.758902 0.685869 0.515128 0.827279 0.331616 1.03218C0.148105 1.23707 0.0343131 1.4949 0.00661099 1.76856C-0.0210911 2.04223 0.038724 2.31763 0.177452 2.55514L8.89525 17.4999L0.177452 32.4447C0.038724 32.6823 -0.0210911 32.9577 0.00661099 33.2313C0.0343131 33.505 0.148105 33.7628 0.331616 33.9677C0.515128 34.1726 0.758902 34.314 1.02787 34.3716C1.29684 34.4292 1.57714 34.4 1.82845 34.2881L36.9285 18.6881C37.1584 18.5861 37.3538 18.4195 37.4909 18.2086C37.628 17.9977 37.701 17.7515 37.701 17.4999C37.701 17.2484 37.628 17.0022 37.4909 16.7913C37.3538 16.5804 37.1584 16.4138 36.9285 16.3117L1.82845 0.711742ZM11.3003 16.4599L4.45185 4.72354L33.2027 17.4999L4.45185 30.2763L11.3003 18.5399H22.1007C22.3765 18.5399 22.641 18.4304 22.836 18.2353C23.0311 18.0403 23.1406 17.7758 23.1406 17.4999C23.1406 17.2241 23.0311 16.9596 22.836 16.7646C22.641 16.5695 22.3765 16.4599 22.1007 16.4599H11.3003Z" fill="black"/>
</svg>
