<svg width="36" height="36" viewBox="0 0 36 36" fill="none" xmlns="http://www.w3.org/2000/svg">
<path d="M18 36C13.4 36 9.392 34.4753 5.976 31.426C2.56 28.3767 0.601333 24.568 0.0999999 20H4.2C4.66667 23.4667 6.20867 26.3333 8.826 28.6C11.4433 30.8667 14.5013 32 18 32C21.9 32 25.2087 30.642 27.926 27.926C30.6433 25.21 32.0013 21.9013 32 18C31.9987 14.0987 30.6407 10.7907 27.926 8.076C25.2113 5.36133 21.9027 4.00267 18 4C15.7 4 13.55 4.53333 11.55 5.6C9.55 6.66667 7.86667 8.13333 6.5 10H12V14H0V2H4V6.7C5.7 4.56667 7.77533 2.91667 10.226 1.75C12.6767 0.583333 15.268 0 18 0C20.5 0 22.842 0.475333 25.026 1.426C27.21 2.37667 29.11 3.65933 30.726 5.274C32.342 6.88866 33.6253 8.78866 34.576 10.974C35.5267 13.1593 36.0013 15.5013 36 18C35.9987 20.4987 35.524 22.8407 34.576 25.026C33.628 27.2113 32.3447 29.1113 30.726 30.726C29.1073 32.3407 27.2073 33.624 25.026 34.576C22.8447 35.528 20.5027 36.0027 18 36ZM23.6 26.4L16 18.8V8H20V17.2L26.4 23.6L23.6 26.4Z" fill="black"/>
</svg>
