<svg width="40" height="40" viewBox="0 0 40 40" fill="none" xmlns="http://www.w3.org/2000/svg">
<path d="M20.2199 25.6733C20.9562 25.6733 21.6853 25.5283 22.3655 25.2465C23.0458 24.9648 23.6638 24.5518 24.1845 24.0311C24.7051 23.5105 25.1181 22.8924 25.3998 22.2122C25.6816 21.532 25.8266 20.8029 25.8266 20.0666C25.8266 19.3304 25.6816 18.6013 25.3998 17.921C25.1181 17.2408 24.7051 16.6227 24.1845 16.1021C23.6638 15.5815 23.0458 15.1685 22.3655 14.8867C21.6853 14.605 20.9562 14.46 20.2199 14.46C18.733 14.46 17.3069 15.0507 16.2554 16.1021C15.204 17.1536 14.6133 18.5796 14.6133 20.0666C14.6133 21.5536 15.204 22.9797 16.2554 24.0311C17.3069 25.0826 18.733 25.6733 20.2199 25.6733Z" stroke="white" stroke-width="2" stroke-linecap="round" stroke-linejoin="round"/>
<path d="M34.9717 25.1566C34.3113 27.0556 33.2917 28.8098 31.9683 30.3233L28.4283 29.52C27.0857 30.7242 25.4906 31.6126 23.76 32.12L22.8033 35.585C21.9066 35.7458 20.9977 35.8288 20.0867 35.8333C18.9469 35.8346 17.8106 35.706 16.7 35.45L15.685 31.8733C14.1723 31.3157 12.7817 30.4707 11.59 29.385L8.08999 30.285C6.70194 28.6629 5.66007 26.7743 5.02832 24.735L7.61165 21.865C7.37588 20.3972 7.41488 18.8985 7.72665 17.445L5.17832 14.7866C5.9191 12.7015 7.09321 10.7969 8.62332 9.19831L12.24 10.0983C13.2359 9.29983 14.3453 8.65439 15.5317 8.18331L16.4883 4.64331C17.6699 4.33731 18.8845 4.17668 20.105 4.16498C21.08 4.16498 22.055 4.25498 23.0133 4.43164L23.9317 7.95331C25.315 8.40164 26.6117 9.08664 27.7583 9.98164L31.395 9.04331C32.8622 10.522 34.0198 12.2785 34.8 14.21L32.3333 16.8883C32.8011 18.7237 32.8399 20.6422 32.4467 22.495L34.9717 25.1566Z" stroke="white" stroke-width="2" stroke-linecap="round" stroke-linejoin="round"/>
</svg>
